<!DOCTYPE svg PUBLIC "-//W3C//DTD SVG 1.1//EN" "http://www.w3.org/Graphics/SVG/1.1/DTD/svg11.dtd">
<!-- Uploaded to: SVG Repo, www.svgrepo.com, Transformed by: SVG Repo Mixer Tools -->
<svg height="800px" width="800px" version="1.1" id="Capa_1" xmlns="http://www.w3.org/2000/svg" xmlns:xlink="http://www.w3.org/1999/xlink" viewBox="0 0 14.971 14.971" xml:space="preserve" fill="#000000" stroke="#000000" stroke-width="0.344333">
<g id="SVGRepo_bgCarrier" stroke-width="0"/>
<g id="SVGRepo_tracerCarrier" stroke-linecap="round" stroke-linejoin="round"/>
<g id="SVGRepo_iconCarrier"> <g> <g> <path style="fill:#030104;" d="M10.643,12.326c-1.216,0-2.349-0.561-3.158-1.532c-0.81,0.972-1.941,1.532-3.157,1.532 C1.941,12.326,0,10.154,0,7.485s1.941-4.841,4.328-4.841v1.171c-1.741,0-3.158,1.646-3.158,3.67s1.417,3.67,3.158,3.67 c1.069,0,2.06-0.628,2.646-1.678l0.511-0.915l0.512,0.914c0.587,1.051,1.577,1.679,2.646,1.679c1.741,0,3.157-1.646,3.157-3.67 s-1.416-3.67-3.157-3.67V2.645c2.387,0,4.328,2.172,4.328,4.841S13.029,12.326,10.643,12.326z"/> </g> </g> </g>
</svg>